<svg xmlns="http://www.w3.org/2000/svg" version="1.1" width="96" height="96">
    <rect x="24" y="24" width="48" height="48" fill="#FFF"></rect>
    <g transform="translate(29.352, 60)">
        <path d="M30.24-1.39L30.24-1.39Q30.24-1.01 29.95-0.72 29.66-0.43 29.23-0.43L29.23-0.43Q28.99-0.43 28.18-1.2 27.36-1.97 23.66-5.66L23.66-5.66 18.67-10.66 13.63-5.62Q8.54-0.62 8.4-0.53L8.4-0.53Q8.21-0.43 8.06-0.43L8.06-0.43Q7.68-0.43 7.37-0.72 7.06-1.01 7.06-1.39L7.06-1.39Q7.06-1.49 7.15-1.78L7.15-1.78Q7.3-2.06 12.24-7.01L12.24-7.01 17.23-12 12.24-16.99Q7.3-21.94 7.15-22.22L7.15-22.22Q7.06-22.42 7.06-22.56L7.06-22.56Q7.06-22.94 7.34-23.26 7.63-23.57 8.02-23.57L8.02-23.57Q8.11-23.57 8.4-23.47L8.4-23.47Q8.54-23.38 13.63-18.38L13.63-18.38 18.67-13.34 23.66-18.34Q27.36-22.03 28.18-22.8 28.99-23.57 29.23-23.57L29.23-23.57Q29.66-23.57 29.95-23.28 30.24-22.99 30.24-22.61L30.24-22.61Q30.24-22.42 30.14-22.22 30.05-22.03 25.06-17.04L25.06-17.04 20.06-12 25.06-6.96Q30.05-1.97 30.14-1.78 30.24-1.58 30.24-1.39Z"
              fill="#404040"></path>
    </g>
</svg>